<?xml version="1.0" standalone="no"?>
<!DOCTYPE svg PUBLIC "-//W3C//DTD SVG 20010904//EN"
 "http://www.w3.org/TR/2001/REC-SVG-20010904/DTD/svg10.dtd">
<svg version="1.0" xmlns="http://www.w3.org/2000/svg"
 width="243.000000pt" height="105.000000pt" viewBox="0 0 243.000000 105.000000"
 preserveAspectRatio="xMidYMid meet">

<g transform="translate(0.000000,105.000000) scale(0.100000,-0.100000)"
fill="#ffffff" stroke="none">
<path d="M40 520 l0 -490 1180 0 1180 0 0 490 0 490 -1180 0 -1180 0 0 -490z
m2320 0 l0 -450 -1140 0 -1140 0 0 450 0 450 1140 0 1140 0 0 -450z"/>
<path d="M405 731 c-119 -31 -179 -141 -155 -287 18 -111 87 -169 200 -167 36
0 77 6 93 12 23 9 27 16 27 49 l0 39 -52 -13 c-67 -18 -112 -9 -142 27 -61 72
-35 230 42 260 25 10 70 5 123 -16 15 -6 39 30 39 60 0 26 -119 50 -175 36z"/>
<path d="M759 703 c-15 -41 -76 -213 -115 -326 l-33 -98 51 3 51 3 17 50 17
50 81 3 81 3 16 -56 16 -55 50 0 c27 0 49 3 49 7 0 4 -34 106 -77 225 l-76
218 -59 0 c-55 0 -59 -2 -69 -27z m96 -133 c14 -40 25 -79 25 -87 0 -9 -16
-13 -56 -13 -49 0 -55 2 -49 18 3 9 16 50 28 89 11 40 22 71 24 69 2 -1 14
-36 28 -76z"/>
<path d="M1100 505 l0 -225 46 0 47 0 -5 170 c-3 94 -4 169 -2 167 4 -3 104
-326 104 -333 0 -2 20 -4 44 -4 l44 0 57 170 c31 94 58 170 59 170 2 0 1 -76
-2 -170 l-5 -170 47 0 46 0 0 225 0 225 -64 0 -64 0 -53 -165 c-29 -91 -55
-165 -59 -165 -3 0 -29 73 -56 163 l-51 162 -66 3 -67 3 0 -226z"/>
<path d="M1690 505 l0 -225 45 0 46 0 -3 170 c-2 93 0 166 3 162 3 -4 28 -80
54 -170 l49 -163 45 3 44 3 58 170 57 170 1 -172 1 -173 45 0 45 0 0 225 0
225 -68 0 -69 0 -54 -170 c-29 -93 -56 -166 -60 -162 -3 4 -28 80 -55 169
l-49 163 -67 0 -68 0 0 -225z"/>
</g>
</svg>
